<svg width="88" height="88" viewBox="0 0 88 88" fill="none" xmlns="http://www.w3.org/2000/svg">
<g filter="url(#filter0_d)">
<rect x="2" y="2" width="80" height="80" rx="5" fill="#343134"/>
</g>
<g filter="url(#filter1_d)">
<path d="M69.7059 34.0117L41.7177 61.9999L51.0471 34.0117H69.7059Z" stroke="#6B666B" stroke-width="3" stroke-linejoin="round"/>
<path d="M69.7059 34.0117H51.0471L55.7118 22.35L69.7059 34.0117Z" stroke="#6B666B" stroke-width="3" stroke-linejoin="round"/>
<path d="M55.7118 22.35L51.0471 34.0117L41.7177 22.35H55.7118Z" stroke="#6B666B" stroke-width="3" stroke-linejoin="round"/>
<path d="M41.7177 22.35L51.0471 34.0117H32.3882L41.7177 22.35Z" stroke="#6B666B" stroke-width="3" stroke-linejoin="round"/>
<path d="M51.0471 34.0117L41.7177 61.9999L32.3882 34.0117H51.0471Z" stroke="#6B666B" stroke-width="3" stroke-linejoin="round"/>
<path d="M41.7177 22.35L32.3882 34.0117L27.7235 22.35H41.7177Z" stroke="#6B666B" stroke-width="3" stroke-linejoin="round"/>
<path d="M32.3883 34.0117L41.7177 61.9999L13.7294 34.0117H32.3883Z" stroke="#6B666B" stroke-width="3" stroke-linejoin="round"/>
<path d="M27.7235 22.35L32.3883 34.0117H13.7294L27.7235 22.35Z" stroke="#6B666B" stroke-width="3" stroke-linejoin="round"/>
</g>
<defs>
<filter id="filter0_d" x="0" y="0" width="88" height="88" filterUnits="userSpaceOnUse" color-interpolation-filters="sRGB">
<feFlood flood-opacity="0" result="BackgroundImageFix"/>
<feColorMatrix in="SourceAlpha" type="matrix" values="0 0 0 0 0 0 0 0 0 0 0 0 0 0 0 0 0 0 127 0" result="hardAlpha"/>
<feOffset dx="2" dy="2"/>
<feGaussianBlur stdDeviation="2"/>
<feComposite in2="hardAlpha" operator="out"/>
<feColorMatrix type="matrix" values="0 0 0 0 0.0703847 0 0 0 0 0.0652257 0 0 0 0 0.0708333 0 0 0 0.25 0"/>
<feBlend mode="normal" in2="BackgroundImageFix" result="effect1_dropShadow"/>
<feBlend mode="normal" in="SourceGraphic" in2="effect1_dropShadow" result="shape"/>
</filter>
<filter id="filter1_d" x="8.22934" y="16.85" width="74.9766" height="58.65" filterUnits="userSpaceOnUse" color-interpolation-filters="sRGB">
<feFlood flood-opacity="0" result="BackgroundImageFix"/>
<feColorMatrix in="SourceAlpha" type="matrix" values="0 0 0 0 0 0 0 0 0 0 0 0 0 0 0 0 0 0 127 0" result="hardAlpha"/>
<feOffset dx="4" dy="4"/>
<feGaussianBlur stdDeviation="4"/>
<feComposite in2="hardAlpha" operator="out"/>
<feColorMatrix type="matrix" values="0 0 0 0 0.126133 0 0 0 0 0.101979 0 0 0 0 0.1375 0 0 0 0.25 0"/>
<feBlend mode="normal" in2="BackgroundImageFix" result="effect1_dropShadow"/>
<feBlend mode="normal" in="SourceGraphic" in2="effect1_dropShadow" result="shape"/>
</filter>
</defs>
</svg>
