<svg width="10" height="11" viewBox="0 0 10 11" fill="none" xmlns="http://www.w3.org/2000/svg">
<path d="M8 10H8.84267L7.86133 8.51733L8.832 7.04533H8.032L7.488 7.95733L6.88533 7.04533H6.04267L7.01867 8.51733L6.05333 10H6.85333L7.392 9.08267L8 10Z" fill="#978AA0"/>
<path d="M0.0789063 10.9H5.01891V9.74H2.06891C3.22891 8.76 4.85891 7.44 4.85891 5.75C4.85891 4.48 4.06891 3.55 2.49891 3.55C1.18891 3.55 0.118906 4.32 0.0689063 5.99H1.42891C1.43891 5.22 1.80891 4.74 2.47891 4.74C3.16891 4.74 3.45891 5.18 3.45891 5.83C3.45891 7.17 1.72891 8.46 0.0789063 9.86V10.9Z" fill="#978AA0"/>
</svg>
