<svg width="17" height="10" viewBox="0 0 17 10" fill="none" xmlns="http://www.w3.org/2000/svg">
<path d="M0.58325 9H1.70325V5.368L3.20725 9H4.05525L5.55125 5.368V9H6.67125V3.416H5.40725L3.63125 7.568L1.85525 3.416H0.58325V9ZM7.49056 6.768C7.49056 8.152 8.38656 9.072 9.50656 9.072C10.2106 9.072 10.7146 8.736 10.9786 8.352V9H12.1066V4.568H10.9786V5.2C10.7146 4.832 10.2266 4.496 9.51456 4.496C8.38656 4.496 7.49056 5.384 7.49056 6.768ZM10.9786 6.784C10.9786 7.624 10.4186 8.088 9.80256 8.088C9.20256 8.088 8.63456 7.608 8.63456 6.768C8.63456 5.928 9.20256 5.48 9.80256 5.48C10.4186 5.48 10.9786 5.944 10.9786 6.784ZM15.6484 9H16.9124L15.4404 6.776L16.8964 4.568H15.6964L14.8804 5.936L13.9764 4.568H12.7124L14.1764 6.776L12.7284 9H13.9284L14.7364 7.624L15.6484 9Z" fill="#978AA0"/>
</svg>
